<svg width="652" height="652" xmlns="http://www.w3.org/2000/svg" xmlns:xlink="http://www.w3.org/1999/xlink" overflow="hidden"><defs><clipPath id="clip0"><rect x="1240" y="228" width="652" height="652"/></clipPath><clipPath id="clip1"><rect x="1240" y="228" width="651" height="651"/></clipPath><clipPath id="clip2"><rect x="1240" y="228" width="651" height="651"/></clipPath><clipPath id="clip3"><rect x="1240" y="228" width="651" height="651"/></clipPath></defs><g clip-path="url(#clip0)" transform="translate(-1240 -228)"><g clip-path="url(#clip1)"><g clip-path="url(#clip2)"><g clip-path="url(#clip3)"><path d="M1891.01 553.5C1891.01 733.269 1745.28 879 1565.51 879 1385.75 879 1240.01 733.269 1240.01 553.5 1240.01 373.731 1385.75 228 1565.51 228 1745.28 228 1891.01 373.731 1891.01 553.5Z" fill="#E89FAD"/><path d="M1564.55 541.493 1756.61 435.474C1757.54 434.952 1758.52 434.591 1759.51 434.375 1756.6 432.493 1753.15 431.388 1749.43 431.388L1379.67 431.388C1376.46 431.388 1373.44 432.206 1370.8 433.642L1564.55 541.493Z" fill="#2A2831"/><path d="M1766.86 453.745 1569.67 562.636C1568.08 563.528 1566.32 563.974 1564.55 563.974 1562.79 563.974 1561.02 563.528 1559.43 562.637L1361.11 452.225 1361.11 657.054C1361.11 667.303 1369.42 675.612 1379.67 675.612L1749.43 675.612C1759.68 675.612 1767.99 667.303 1767.99 657.054L1767.99 452.998C1767.63 453.265 1767.26 453.52 1766.86 453.745Z" fill="#2A2831"/></g></g></g></g></svg>