<svg width="624" height="625" xmlns="http://www.w3.org/2000/svg" xmlns:xlink="http://www.w3.org/1999/xlink" overflow="hidden"><defs><clipPath id="clip0"><rect x="646" y="295" width="624" height="625"/></clipPath><clipPath id="clip1"><rect x="646" y="296" width="623" height="623"/></clipPath><clipPath id="clip2"><rect x="646" y="296" width="623" height="623"/></clipPath><clipPath id="clip3"><rect x="646" y="296" width="623" height="623"/></clipPath></defs><g clip-path="url(#clip0)" transform="translate(-646 -295)"><g clip-path="url(#clip1)"><g clip-path="url(#clip2)"><g clip-path="url(#clip3)"><path d="M1269.01 607.5C1269.01 779.537 1129.55 919 957.514 919 785.478 919 646.014 779.537 646.014 607.5 646.014 435.463 785.478 296 957.514 296 1129.55 296 1269.01 435.463 1269.01 607.5Z" fill="#E89FAD"/><path d="M956.591 412.812C880.563 412.812 818.709 474.666 818.709 550.694 818.709 579.765 825.67 611.018 839.399 643.583 850.23 669.274 865.289 695.875 884.162 722.647 916.155 768.035 947.725 797.945 949.053 799.196 951.172 801.193 953.882 802.188 956.591 802.188 959.37 802.188 962.147 801.14 964.281 799.051 965.607 797.754 997.113 766.755 1029.06 720.847 1072.47 658.474 1094.47 601.226 1094.47 550.694 1094.47 474.666 1032.62 412.812 956.591 412.812ZM956.591 598.001C925.289 598.001 899.822 572.534 899.822 541.231 899.822 509.928 925.289 484.462 956.591 484.462 987.894 484.462 1013.36 509.928 1013.36 541.231 1013.36 572.534 987.894 598.001 956.591 598.001Z" fill="#2A2831"/></g></g></g></g></svg>