<svg width="637" height="638" xmlns="http://www.w3.org/2000/svg" xmlns:xlink="http://www.w3.org/1999/xlink" overflow="hidden"><defs><clipPath id="clip0"><rect x="137" y="242" width="637" height="638"/></clipPath><clipPath id="clip1"><rect x="137" y="243" width="637" height="636"/></clipPath><clipPath id="clip2"><rect x="137" y="243" width="637" height="636"/></clipPath><clipPath id="clip3"><rect x="137" y="243" width="637" height="636"/></clipPath></defs><g clip-path="url(#clip0)" transform="translate(-137 -242)"><g clip-path="url(#clip1)"><g clip-path="url(#clip2)"><g clip-path="url(#clip3)"><path d="M318 0C142.337 0 0 142.337 0 318 0 493.663 142.337 636 318 636 493.663 636 636 493.663 636 318 636 142.337 493.663 0 318 0ZM482.724 440.494C482.724 451.178 478.145 461.354 470.258 468.605 462.372 475.855 451.687 479.417 441.002 478.399 404.369 474.965 368.88 465.298 335.681 449.525 303.372 434.134 274.243 413.527 248.803 388.214 223.49 362.902 202.757 333.646 187.493 301.337 171.72 268.138 161.926 232.776 158.618 196.015 158.491 194.87 158.491 193.726 158.491 192.581 158.491 183.041 162.053 173.882 168.413 166.759 175.663 158.873 185.839 154.294 196.524 154.294L247.658 154.294C267.12 154.294 283.274 168.794 285.437 188.002 286.709 199.322 288.998 210.516 292.306 221.328 296.503 234.938 292.814 249.566 282.893 259.488L262.159 280.222C283.91 319.908 316.982 352.98 356.669 374.731L377.402 353.998C387.324 344.076 401.952 340.387 415.562 344.585 426.374 347.892 437.568 350.182 448.889 351.454 468.096 353.616 482.597 369.898 482.597 389.232L482.597 440.494Z" fill="#E89FAD" transform="matrix(1.00157 0 0 1 137 243)"/></g></g></g></g></svg>